<?xml version="1.0" encoding="UTF-8" standalone="no"?>
<svg
   width="512.8667716535434"
   height="533.1855118110236"
   viewBox="0 0 512.8667716535434 533.1855118110236"
   version="1.1"
   id="svg186"
   sodipodi:docname="piligon.svg"
   inkscape:version="1.2.2 (b0a8486541, 2022-12-01)"
   xmlns:inkscape="http://www.inkscape.org/namespaces/inkscape"
   xmlns:sodipodi="http://sodipodi.sourceforge.net/DTD/sodipodi-0.dtd"
   xmlns="http://www.w3.org/2000/svg"
   xmlns:svg="http://www.w3.org/2000/svg"
   xmlns:inkstitch="http://inkstitch.org/namespace"><defs
   id="defs190" />
<sodipodi:namedview
   id="namedview188"
   pagecolor="#505050"
   bordercolor="#eeeeee"
   borderopacity="1"
   inkscape:showpageshadow="0"
   inkscape:pageopacity="0"
   inkscape:pagecheckerboard="0"
   inkscape:deskcolor="#505050"
   showgrid="false"
   inkscape:zoom="2.1192562"
   inkscape:cx="186.85801"
   inkscape:cy="253.62672"
   inkscape:window-width="1920"
   inkscape:window-height="1011"
   inkscape:window-x="0"
   inkscape:window-y="32"
   inkscape:window-maximized="1"
   inkscape:current-layer="g184" />
svg<g
   inkscape:label="piligon.gcode"
   inkscape:groupmode="layer"
   transform="translate(256.433, 266.593)"
   id="g184">
  <g
     id="__color_block_0__"
     inkscape:label="color block 1">
    <path
       id="object6585"
       style="stroke: #8B8835; stroke-width: 0.4; fill: none;"
       d="M-0.0 -0.0 255.71527559055122 -88.6828346456693 255.1823622047244 -85.91244094488191 254.64944881889764 -83.1420472440945 255.1823622047244 -85.91244094488191 255.71527559055122 -88.6828346456693 254.64944881889764 -83.1420472440945 253.5874015748032 -77.60125984251968 252.52157480314963 -72.06425196850395 251.4557480314961 -66.52346456692914 250.38992125984254 -60.982677165354346 249.3278740157481 -55.44566929133858 248.2620472440946 -49.90488188976379 247.19622047244098 -44.364094488188975 246.13039370078747 -38.82708661417323 245.06456692913395 -33.28629921259843 244.00251968503935 -27.745511811023626 242.93669291338583 -22.20850393700788 241.87086614173228 -16.667716535433073 240.80503937007876 -11.126929133858267 239.7429921259843 -5.589921259842521 238.67716535433073 -0.04913385826771654 237.6113385826772 5.491653543307088 236.54551181102366 11.032440944881891 235.48346456692917 16.56944881889764 234.41763779527565 22.110236220472444 233.35181102362208 27.651023622047244 232.28598425196856 33.188031496063 231.223937007874 38.728818897637794 230.1581102362205 44.269606299212604 229.09228346456695 49.806614173228354 228.02645669291343 55.34740157480316 226.9644094488189 60.888188976377954 225.89858267716536 66.4251968503937 224.83275590551185 71.96598425196851 223.76692913385827 77.50677165354332 222.70110236220475 83.04377952755907 221.63905511811032 88.58456692913387 220.57322834645674 94.12535433070867 219.50740157480317 99.66614173228348 218.44157480314965 105.20314960629923 217.37952755905513 110.74393700787402 216.31370078740156 116.28472440944884 215.24787401574804 121.82173228346457 214.18204724409446 127.36251968503939 213.12000000000003 132.90330708661418 212.0541732283465 138.4403149606299 210.98834645669294 143.98110236220472 209.92251968503942 149.52188976377954 208.86047244094487 155.0588976377953 207.79464566929136 160.59968503937006 206.72881889763784 166.14047244094488 205.6629921259843 171.67748031496063 204.59716535433074 177.21826771653548 199.268031496063 179.0664566929134 193.9388976377953 180.91464566929136 188.60976377952755 182.76283464566933 183.28062992125984 184.6072440944882 177.9477165354331 186.45543307086615 172.61858267716536 188.30362204724412 167.28944881889765 190.1518110236221 161.96031496062992 192.00000000000003 156.63118110236223 193.84818897637797 151.29826771653546 195.69259842519688 145.96913385826775 197.54078740157482 140.64000000000001 199.38897637795282 135.3108661417323 201.23716535433076 129.98173228346457 203.08535433070864 124.64881889763778 204.93354330708667 119.3196850393701 206.77795275590557 113.99055118110239 208.6261417322835 108.66141732283465 210.47433070866145 103.33228346456693 212.32251968503937 97.99937007874016 214.17070866141734 92.67023622047245 216.01889763779528 87.34110236220474 217.8633070866142 82.01196850393703 219.71149606299213 76.6828346456693 221.5596850393701 71.34992125984253 223.40787401574806 66.02078740157481 225.256062992126 60.69165354330708 227.10425196850397 55.36251968503937 228.94866141732285 50.03338582677166 230.7968503937008 44.700472440944885 232.64503937007876 39.37133858267717 234.49322834645668 34.042204724409444 236.34141732283464 28.713070866141738 238.1896062992126 23.383937007874017 240.03401574803152 18.051023622047246 241.8822047244095 12.721889763779531 243.7303937007874 7.392755905511811 245.57858267716537 2.063622047244095 247.42677165354334 -3.2655118110236225 249.27496062992128 -8.598425196850394 251.11937007874016 -13.927559055118113 252.96755905511813 -19.256692913385827 254.8157480314961 -24.585826771653544 256.6639370078741 -29.914960629921268 258.512125984252 -35.24787401574804 260.35653543307086 -40.57700787401576 262.2047244094489 -45.90614173228347 264.05291338582686 -51.23527559055119 265.90110236220477 -55.502362204724406 262.2085039370079 -59.76566929133859 258.51590551181107 -64.03275590551183 254.8233070866142 -68.29606299212598 251.1344881889764 -72.55937007874017 247.44188976377956 -76.8264566929134 243.74929133858274 -81.08976377952756 240.05669291338586 -85.3568503937008 236.36409448818898 -89.62015748031497 232.67149606299216 -93.88724409448821 228.9788976377953 -98.15055118110237 225.29007874015747 -102.41763779527562 221.59748031496065 -106.68094488188976 217.90488188976383 -110.94425196850393 214.21228346456695 -115.21133858267717 210.5196850393701 -119.47464566929136 206.82708661417328 -123.7417322834646 203.1344881889764 -128.00503937007875 199.44566929133862 -132.272125984252 195.75307086614174 -136.53543307086616 192.06047244094492 -140.80251968503939 188.36787401574804 -145.06582677165358 184.6752755905512 -149.3291338582677 180.98267716535435 -153.59622047244096 177.29007874015753 -157.85952755905515 173.6012598425197 -162.12661417322838 169.90866141732283 -166.38992125984254 166.216062992126 -170.65700787401573 162.52346456692914 -174.92031496062992 158.83086614173232 -179.1836220472441 155.13826771653544 -183.45070866141734 151.4456692913386 -187.7140157480315 147.7568503937008 -191.98110236220475 144.06425196850392 -196.2444094488189 140.3716535433071 -200.51149606299214 136.67905511811026 -204.7748031496063 132.9864566929134 -209.0418897637795 129.29385826771656 -213.3051968503937 125.6012598425197 -217.56850393700788 121.91244094488191 -221.83559055118116 118.21984251968506 -226.0988976377953 114.5272440944882 -230.36598425196854 110.83464566929135 -234.6292913385827 107.14204724409451 -238.8963779527559 103.44944881889765 -243.15968503937012 99.7568503937008 -247.42677165354334 96.06803149606301 -251.6900787401575 92.37543307086615 -255.9533858267717 88.6828346456693 -256.4333858267717 89.23464566929134 -254.90645669291342 88.62236220472442 -255.2957480314961 90.2248818897638 -253.76503937007874 89.6088188976378 -254.15433070866146 91.21133858267717 -252.62362204724414 90.59527559055118 -253.01291338582678 92.19779527559055 -251.48220472440948 91.58551181102362 -251.87149606299218 93.18425196850396 -250.34456692913386 92.57196850393701 -250.73007874015752 94.17070866141734 -249.20314960629926 93.55842519685041 -249.5924409448819 95.16094488188978 -248.06173228346455 94.54488188976379 -248.4510236220473 96.14740157480315 -246.92031496062995 95.53133858267718 -247.3096062992126 97.13385826771655 -245.78267716535433 96.5215748031496 -246.168188976378 98.12031496062994 -244.64125984251967 97.50803149606301 -245.03055118110242 99.11055118110238 -243.49984251968507 98.49448818897638 -243.8891338582677 100.09700787401577 -242.35842519685042 99.48094488188978 -242.74771653543309 101.08346456692914 -241.22078740157485 100.47118110236221 -241.60629921259846 102.06992125984253 -240.0793700787402 101.4576377952756 -240.46866141732283 103.05637795275592 -238.93795275590554 102.444094488189 -239.32724409448824 104.04661417322836 -237.79653543307091 103.43055118110235 -238.18582677165358 105.03307086614173 -236.6588976377953 104.41700787401575 -237.04440944881895 106.01952755905513 -235.51748031496064 105.40724409448819 -235.90677165354336 107.00598425196851 -234.37606299212604 106.39370078740157 -234.76535433070867 107.99622047244095 -233.23464566929138 107.38015748031498 -233.62393700787402 108.98267716535436 -232.0970078740158 108.36661417322837 -232.48251968503942 109.96913385826772 -230.9555905511811 109.3568503937008 -231.3448818897638 110.9555905511811 -229.81417322834645 110.34330708661419 -230.2034645669292 111.94204724409451 -228.6727559055118 111.32976377952757 -229.06204724409454 112.93228346456695 -227.53511811023623 112.31622047244093 -227.92062992125983 113.9187401574803 -226.39370078740157 113.30267716535437 -226.78299212598426 114.90519685039371 -225.25228346456697 114.29291338582678 -225.6415748031496 115.8916535433071 -224.11086614173232 115.27937007874016 -224.50015748031495 116.88188976377953 -222.9732283464567 116.26582677165356 -223.35874015748036 117.86834645669293 -221.83181102362204 117.25228346456694 -222.2211023622048 118.8548031496063 -220.6903937007874 118.24251968503938 -221.07968503937013 119.84125984251969 -219.54897637795278 119.22897637795276 -219.93826771653545 120.8277165354331 -218.41133858267716 120.21543307086615 -218.7968503937008 121.81795275590552 -217.26992125984256 121.20188976377952 -217.6592125984252 122.80440944881889 -216.12850393700788 122.18834645669294 -216.51779527559057 123.7908661417323 -214.98708661417322 123.17858267716538 -215.37637795275594 124.7773228346457 -213.84566929133857 124.16503937007874 -214.23496062992132 125.76755905511814 -212.70803149606303 125.15149606299215 -213.0973228346457 126.75401574803152 -211.56661417322834 126.13795275590553 -211.95590551181104 127.7404724409449 -210.42519685039375 127.12818897637797 -210.81448818897638 128.72692913385828 -209.2837795275591 128.11464566929135 -209.67307086614173 129.71338582677168 -208.14614173228352 129.10110236220476 -208.53543307086616 130.7036220472441 -207.00472440944887 130.0875590551181 -207.3940157480315 131.6900787401575 -205.8633070866142 131.0740157480315 -206.2525984251969 132.67653543307088 -204.72188976377953 132.06425196850395 -205.1111811023622 133.6629921259843 -203.58425196850393 133.05070866141733 -203.97354330708666 134.65322834645673 -202.4428346456693 134.03716535433074 -202.83212598425197 135.6396850393701 -201.30141732283465 135.02362204724412 -201.69070866141732 136.6261417322835 -200.16000000000003 136.01385826771656 -200.5492913385827 137.61259842519684 -199.02236220472443 137.00031496062994 -199.40787401574806 138.59905511811024 -197.8809448818898 137.98677165354334 -198.27023622047247 139.58929133858268 -196.73952755905512 138.97322834645672 -197.1288188976378 140.5757480314961 -195.5981102362205 139.95968503937007 -195.98740157480316 141.56220472440947 -194.4604724409449 140.94992125984254 -194.8459842519685 142.54866141732288 -193.31905511811027 141.93637795275592 -193.70834645669294 143.5388976377953 -192.17763779527564 142.9228346456693 -192.5669291338583 144.52535433070867 -191.036220472441 143.9092913385827 -191.42551181102365 145.51181102362207 -189.8985826771654 144.89952755905512 -190.284094488189 146.49826771653545 -188.75716535433074 145.88598425196852 -189.14645669291343 147.4847244094488 -187.61574803149608 146.87244094488193 -188.00503937007878 148.47496062992127 -186.47433070866143 147.8588976377953 -186.86362204724412 149.46141732283468 -185.33669291338586 148.84535433070866 -185.7222047244095 150.44787401574803 -184.1952755905512 149.83559055118113 -184.58456692913387 151.43433070866143 -183.05385826771655 150.8220472440945 -183.44314960629924 152.42456692913387 -181.9124409448819 151.80850393700786 -182.3017322834646 153.41102362204725 -180.7748031496063 152.79496062992126 -181.16031496062996 154.39748031496066 -179.63338582677164 153.7851968503937 -180.02267716535434 155.38393700787404 -178.49196850393702 154.77165354330708 -178.8812598425197 156.3703937007874 -177.3505511811024 155.7581102362205 -177.73984251968506 157.36062992125986 -176.21291338582677 156.7445669291339 -176.59842519685043 158.34708661417326 -175.07149606299214 157.73102362204725 -175.4607874015748 159.3335433070866 -173.9300787401575 158.72125984251971 -174.31937007874018 160.32000000000002 -172.78866141732283 159.7077165354331 -173.17795275590552 161.3064566929134 -171.65102362204726 160.69417322834647 -172.0365354330709 162.29669291338584 -170.5096062992126 161.68062992125985 -170.89889763779527 163.28314960629922 -169.36818897637798 162.66708661417323 -169.75748031496065 164.26960629921263 -168.2267716535433 163.65732283464567 -168.616062992126 165.25606299212598 -167.08913385826776 164.64377952755908 -167.47464566929136 166.24629921259844 -165.94771653543307 165.63023622047245 -166.33700787401577 167.23275590551185 -164.80629921259842 166.61669291338586 -165.1955905511811 168.21921259842523 -163.6648818897638 167.60692913385827 -164.05417322834649 169.2056692913386 -162.52346456692914 168.59338582677168 -162.9127559055118 170.192125984252 -161.38582677165357 169.57984251968506 -161.77511811023624 171.18236220472443 -160.2444094488189 170.56629921259844 -160.63370078740158 172.1688188976378 -159.10299212598426 171.55275590551182 -159.49228346456695 173.15527559055118 -157.9615748031496 172.54299212598426 -158.3508661417323 174.1417322834646 -156.82393700787404 173.52944881889766 -157.2132283464567 175.13196850393703 -155.68251968503938 174.51590551181104 -156.07181102362205 176.1184251968504 -154.54110236220475 175.50236220472442 -154.93039370078742 177.10488188976382 -153.3996850393701 176.4925984251969 -153.78897637795276 178.0913385826772 -152.2620472440945 177.47905511811024 -152.64755905511814 179.07779527559057 -151.12062992125988 178.46551181102365 -151.50992125984254 180.068031496063 -149.97921259842525 179.45196850393702 -150.3685039370079 181.05448818897642 -148.83779527559057 180.4384251968504 -149.22708661417323 182.04094488188977 -147.700157480315 181.42866141732284 -148.08566929133858 183.02740157480315 -146.55874015748032 182.41511811023628 -146.948031496063 184.01763779527562 -145.4173228346457 183.40157480314963 -145.80661417322838 185.004094488189 -144.27590551181103 184.388031496063 -144.66519685039373 185.99055118110238 -143.13826771653547 185.37826771653548 -143.52377952755904 186.97700787401575 -141.99685039370078 186.36472440944883 -142.38614173228348 187.96346456692916 -140.85543307086616 187.3511811023622 -141.24472440944885 188.9537007874016 -139.7140157480315 188.3376377952756 -140.1033070866142 189.94015748031498 -138.5763779527559 189.324094488189 -138.96188976377954 190.92661417322836 -137.43496062992128 190.31433070866143 -137.82425196850394 191.91307086614174 -136.29354330708662 191.30078740157484 -136.6828346456693 192.90330708661418 -135.152125984252 192.28724409448822 -135.54141732283466 193.88976377952758 -134.01448818897637 193.2737007874016 -134.40000000000003 194.87622047244096 -132.87307086614175 194.26393700787403 -133.26236220472444 195.86267716535434 -131.7316535433071 195.25039370078738 -132.12094488188978 196.84913385826772 -130.59023622047246 196.23685039370082 -130.97952755905516 197.8393700787402 -129.45259842519687 197.2233070866142 -129.8381102362205 198.82582677165357 -128.31118110236224 198.20976377952758 -128.7004724409449 199.81228346456695 -127.16976377952756 199.2 -127.55905511811025 200.79874015748032 -126.02834645669293 200.1864566929134 -126.41763779527562 201.78897637795276 -124.8907086614173 201.1729133858268 -125.27622047244097 202.77543307086617 -123.74929133858268 202.15937007874018 -124.13858267716537 203.76188976377955 -122.60787401574802 203.14960629921262 -122.99716535433072 204.74834645669293 -121.4664566929134 204.13606299212603 -121.85574803149606 205.7348031496063 -120.3288188976378 205.12251968503944 -120.71433070866142 206.72503937007878 -119.18740157480318 206.10897637795279 -119.57669291338584 207.71149606299218 -118.0459842519685 207.09543307086614 -118.43527559055119 208.69795275590553 -116.90456692913388 208.08566929133858 -117.29385826771654 209.6844094488189 -115.76314960629922 209.07212598425198 -116.15244094488189 210.67464566929135 -114.62551181102363 210.05858267716536 -115.01480314960631 211.66110236220476 -113.48409448818897 211.04503937007877 -113.87338582677167 212.6475590551181 -112.34267716535435 212.03527559055118 -112.73196850393704 213.63401574803152 -111.2012598425197 213.0217322834646 -111.59055118110237 214.62047244094487 -110.0636220472441 214.00818897637797 -110.45291338582679 215.61070866141736 -108.92220472440945 214.99464566929137 -109.31149606299213 216.59716535433077 -107.78078740157483 215.98110236220478 -108.17007874015749 217.58362204724412 -106.63937007874017 216.97133858267716 -107.02866141732284 218.5700787401575 -105.50173228346458 217.95779527559057 -105.89102362204726 219.5603149606299 -104.36031496062995 218.94425196850392 -104.74960629921262 220.54677165354332 -103.21889763779527 219.93070866141733 -103.60818897637796 221.5332283464567 -102.07748031496064 220.92094488188977 -102.46677165354333 222.5196850393701 -100.93984251968504 221.90740157480317 -101.32535433070868 223.5061417322835 -99.7984251968504 222.89385826771655 -100.18771653543307 224.49637795275595 -98.65700787401576 223.88031496062996 -99.04629921259843 225.48283464566936 -97.5155905511811 224.86677165354337 -97.9048818897638 226.4692913385827 -96.37795275590551 225.85700787401578 -96.76346456692913 227.45574803149606 -95.23653543307088 226.84346456692916 -95.62582677165355 228.4459842519685 -94.09511811023623 227.8299212598425 -94.48440944881891 229.4324409448819 -92.95370078740157 228.81637795275591 -93.34299212598425 230.4188976377953 -91.816062992126 229.80283464566932 -92.20157480314961 231.4053543307087 -90.67464566929135 230.79307086614176 -91.06393700787403 232.3918110236221 -89.5332283464567 231.7795275590551 -89.92251968503939 233.3820472440945 -88.39181102362207 232.76598425196852 -88.78110236220473 234.36850393700792 -87.25417322834646 233.75244094488193 -87.6396850393701 235.3549606299213 -86.11275590551182 234.74267716535437 -86.5020472440945 236.34141732283464 -84.97133858267718 235.72913385826774 -85.36062992125986 237.32787401574805 -83.82992125984254 236.7155905511811 -84.21921259842522 238.3181102362205 -82.69228346456694 237.70204724409456 -83.07779527559056 239.3045669291339 -81.5508661417323 238.6885039370079 -81.94015748031498 240.29102362204725 -80.40944881889764 239.67874015748035 -80.79874015748032 241.27748031496066 -79.268031496063 240.6651968503937 -79.65732283464567 242.2677165354331 -78.13039370078741 241.6516535433071 -78.51590551181104 243.2541732283465 -76.98897637795277 242.63811023622048 -77.37826771653543 244.24062992125988 -75.84755905511813 243.6283464566929 -76.23685039370079 245.22708661417323 -74.70614173228346 244.61480314960636 -75.09543307086615 246.21354330708664 -73.56850393700788 245.60125984251968 -73.95401574803151 247.2037795275591 -72.42708661417323 246.5877165354331 -72.8163779527559 248.19023622047249 -71.28566929133859 247.5741732283465 -71.67496062992126 249.17669291338584 -70.14425196850394 248.56440944881896 -70.53354330708662 250.1631496062992 -69.00661417322834 249.55086614173229 -69.39212598425198 251.15338582677168 -67.8651968503937 250.5373228346457 -68.25448818897638 252.1398425196851 -66.72377952755906 251.5237795275591 -67.11307086614174 253.12629921259844 -65.58236220472442 252.51401574803157 -65.97165354330708 254.11275590551182 -64.44094488188976 253.50047244094495 -64.83023622047243 255.09921259842523 -63.303307086614176 254.48692913385827 -63.69259842519686 256.0894488188977 -62.16188976377954 255.47338582677168 -62.551181102362214 257.0759055118111 -61.020472440944886 256.4598425196851 -61.40976377952758 258.0623622047244 -59.87905511811025 257.45007874015755 -60.268346456692925 259.0488188976379 -58.74141732283465 258.43653543307084 -59.13070866141733 260.0390551181103 -57.60000000000001 259.42299212598425 -57.98929133858269 261.02551181102365 -56.45858267716536 260.40944881889766 -56.84787401574804 262.01196850393706 -55.31716535433071 261.3996850393702 -55.7064566929134 262.9984251968504 -54.17952755905513 262.3861417322835 -54.56503937007875 263.9848818897638 -53.038110236220476 263.3725984251968 -53.42740157480315 264.9751181102363 -51.896692913385834 264.35905511811023 -52.285984251968515 265.96157480314963 -50.74771653543307 265.35307086614176 -50.99716535433072 266.5927559055118 -50.762834645669294 264.96000000000004 -49.57228346456693 266.0976377952756 -49.33795275590551 264.46866141732283 -48.14740157480316 265.60629921259846 -47.91307086614174 263.9735433070867 -46.718740157480326 265.11118110236225 -46.488188976377955 263.4784251968504 -45.293858267716544 264.61606299212605 -45.06330708661418 262.9870866141732 -43.86897637795276 264.1247244094488 -43.6384251968504 262.4919685039371 -42.44409448818898 263.62960629921264 -42.21354330708662 261.9968503937008 -41.0192125984252 263.1344881889764 -40.78488188976378 261.50173228346455 -39.594330708661424 262.63937007874017 -39.36 261.0103937007874 -38.16944881889764 262.148031496063 -37.935118110236225 260.5152755905512 -36.74456692913386 261.65291338582676 -36.51023622047244 260.020157480315 -35.319685039370086 261.15779527559056 -35.08535433070866 259.52881889763785 -33.894803149606304 260.66267716535435 -33.660472440944886 259.0337007874016 -32.466141732283475 260.1713385826772 -32.235590551181105 258.5385826771654 -31.041259842519686 259.676220472441 -30.810708661417323 258.0434645669292 -29.616377952755908 259.18110236220474 -29.385826771653548 257.55212598425203 -28.191496062992133 258.68976377952754 -27.960944881889766 257.0570078740158 -26.766614173228344 258.19464566929133 -26.532283464566927 256.56188976377956 -25.34173228346457 257.6995275590551 -25.10740157480315 256.07055118110236 -23.91685039370079 257.204409448819 -23.682519685039374 255.57543307086613 -22.49196850393701 256.7130708661418 -22.257637795275592 255.08031496062995 -21.067086614173228 256.2179527559055 -20.83275590551181 254.5851968503937 -19.64220472440945 255.72283464566925 -19.407874015748032 254.09385826771654 -18.213543307086617 255.2314960629921 -17.982992125984254 253.59874015748036 -16.788661417322835 254.73637795275596 -16.558110236220475 253.1036220472441 -15.363779527559057 254.24125984251972 -15.133228346456693 252.61228346456696 -13.938897637795279 253.74614173228352 -13.708346456692913 252.11716535433075 -12.514015748031497 253.25480314960632 -12.279685039370081 251.62204724409452 -11.089133858267719 252.7596850393701 -10.854803149606301 251.1269291338583 -9.664251968503937 252.26456692913388 -9.429921259842521 250.63559055118108 -8.239370078740158 251.7732283464567 -8.005039370078741 250.1404724409449 -6.814488188976379 251.27811023622047 -6.580157480314962 249.64535433070873 -5.389606299212599 250.78299212598426 -5.155275590551182 249.15401574803155 -3.960944881889765 250.287874015748 -3.7303937007874017 248.6588976377953 -2.536062992125985 249.79653543307086 -2.305511811023622 248.16377952755906 -1.1111811023622047 249.30141732283468 -0.8806299212598427 247.66866141732285 0.31370078740157487 248.80629921259842 0.544251968503937 247.1773228346457 1.7385826771653548 248.31496062992127 1.9729133858267722 246.68220472440947 3.1634645669291337 247.8198425196851 3.397795275590552 246.18708661417327 4.588346456692914 247.32472440944883 4.822677165354331 245.69574803149612 6.013228346456694 246.82960629921263 6.247559055118112 245.20062992125986 7.4381102362204725 246.33826771653548 7.672440944881889 244.70551181102365 8.862992125984253 245.84314960629928 9.09732283464567 244.21039370078748 10.291653543307087 245.34803149606304 10.522204724409448 243.71905511811025 11.716535433070868 244.8566929133858 11.947086614173228 243.223937007874 13.141417322834645 244.3615748031496 13.371968503937007 242.7288188976378 14.566299212598427 243.86645669291343 14.796850393700788 242.23370078740157 15.991181102362209 243.37133858267717 16.225511811023622 241.74236220472443 17.416062992125983 242.88000000000002 17.650393700787404 241.24724409448817 18.840944881889765 242.3848818897638 19.075275590551183 240.75212598425202 20.265826771653547 241.88976377952758 20.50015748031496 240.26078740157487 21.690708661417325 241.39464566929138 21.925039370078743 239.7656692913386 23.11937007874016 240.90330708661418 23.349921259842525 239.27055118110243 24.54425196850394 240.40818897637797 24.774803149606303 238.77543307086617 25.969133858267725 239.91307086614174 26.199685039370088 238.28409448818903 27.3940157480315 239.4217322834646 27.624566929133863 237.78897637795276 28.818897637795278 238.9266141732284 29.0532283464567 237.2938582677166 30.243779527559063 238.43149606299215 30.478110236220477 236.80251968503944 31.668661417322834 237.9363779527559 31.90299212598426 236.30740157480318 33.09354330708662 237.44503937007875 33.32787401574804 235.81228346456697 34.518425196850394 236.94992125984254 34.75275590551182 235.31716535433074 35.943307086614176 236.45480314960633 36.177637795275594 234.82582677165357 37.37196850393701 235.9634645669292 37.602519685039375 234.33070866141733 38.796850393700794 235.46834645669293 39.02740157480316 233.83559055118116 40.22173228346456 234.97322834645675 40.45228346456693 233.34425196850398 41.64661417322835 234.4781102362205 41.877165354330714 232.84913385826772 43.07149606299213 233.98677165354334 43.30582677165354 232.3540157480315 44.49637795275591 233.4916535433071 44.73070866141733 231.85889763779528 45.92125984251969 232.9965354330709 46.155590551181106 231.36755905511814 47.34614173228347 232.50519685039376 47.58047244094489 230.87244094488193 48.771023622047245 232.0100787401575 49.00535433070867 230.3773228346457 50.195905511811034 231.51496062992132 50.43023622047245 229.88598425196852 51.62456692913387 231.01984251968506 51.85511811023623 229.3908661417323 53.04944881889763 230.5285039370079 53.28000000000001 228.89574803149608 54.47433070866142 230.03338582677165 54.70488188976378 228.40062992125985 55.899212598425194 229.53826771653544 56.12976377952757 227.9092913385827 57.324094488188976 229.0469291338583 57.55842519685039 227.4141732283465 58.74897637795276 228.55181102362204 58.98330708661418 226.91905511811024 60.17385826771654 228.05669291338592 60.40818897637796 226.4277165354331 61.598740157480314 227.56157480314965 61.83307086614174 225.9325984251969 63.0236220472441 227.07023622047245 63.257952755905514 225.43748031496065 64.44850393700787 226.57511811023625 64.6828346456693 224.94236220472445 65.87716535433073 226.08 66.10771653543307 224.45102362204724 67.3020472440945 225.58866141732287 67.53259842519685 223.95590551181107 68.72692913385828 225.0935433070866 68.95748031496063 223.4607874015748 70.15181102362206 224.59842519685043 70.38236220472442 222.96566929133866 71.57669291338583 224.10330708661417 71.81102362204726 222.47433070866145 73.00157480314962 223.61196850393702 73.23590551181103 221.9792125984252 74.4264566929134 223.11685039370082 74.66078740157482 221.484094488189 75.85133858267717 222.6217322834646 76.08566929133859 220.99275590551179 77.27622047244095 222.12661417322838 77.51055118110237 220.49763779527566 78.70110236220475 221.6352755905512 78.93543307086615 220.0025196850394 80.12976377952756 221.14015748031497 80.36031496062994 219.50740157480317 81.55464566929135 220.64503937007876 81.7851968503937 219.01606299212602 82.97952755905513 220.15370078740162 83.21007874015747 218.52094488188976 84.4044094488189 219.65858267716538 84.63496062992127 218.02582677165356 85.82929133858269 219.16346456692918 86.06362204724411 217.53448818897635 87.25417322834646 218.66834645669297 87.48850393700788 217.0393700787402 88.67905511811024 218.17700787401577 88.91338582677166 216.54425196850394 90.10393700787402 217.68188976377957 90.33826771653546 216.04913385826777 91.5288188976378 217.18677165354333 91.76314960629921 215.55779527559056 92.95370078740157 216.6954330708662 93.188031496063 215.06267716535436 94.38236220472443 216.20031496062992 94.61291338582679 214.56755905511812 95.8072440944882 215.70519685039372 96.03779527559055 214.07622047244095 97.23212598425198 215.21007874015754 97.46267716535434 213.58110236220477 98.65700787401576 214.71874015748034 98.88755905511812 213.0859842519685 100.08188976377954 214.22362204724408 100.31622047244096 212.5908661417323 101.50677165354332 213.72850393700793 101.74110236220473 212.09952755905516 102.9316535433071 213.23716535433073 103.16598425196851 211.60440944881893 104.35653543307087 212.74204724409452 104.59086614173228 211.10929133858272 105.78141732283466 212.24692913385826 106.01574803149609 210.61795275590552 107.21007874015747 211.75181102362208 107.44062992125984 210.12283464566931 108.63496062992128 211.26047244094494 108.86551181102361 209.62771653543308 110.05984251968505 210.76535433070867 110.29039370078742 209.13259842519682 111.48472440944883 210.27023622047244 111.71527559055119 208.64125984251967 112.90960629921263 209.77889763779527 113.14393700787403 208.14614173228352 114.3344881889764 209.2837795275591 114.56881889763781 207.6510236220473 115.75937007874015 208.78866141732283 115.9937007874016 207.15968503937012 117.18425196850396 208.29354330708665 117.41858267716536 206.66456692913385 118.60913385826773 207.8022047244095 118.84346456692916 206.16944881889768 120.03401574803152 207.30708661417324 120.26834645669294 205.67433070866142 121.46267716535435 206.81196850393704 121.6932283464567 205.18299212598427 122.88755905511815 206.32062992125984 123.11811023622049 204.68787401574804 124.31244094488189 205.82551181102363 124.54299212598426 204.19275590551183 125.7373228346457 205.3303937007874 125.96787401574804 203.69763779527563 127.16220472440948 204.83527559055125 127.39653543307088 203.20629921259845 128.58708661417322 204.34393700787408 128.82141732283466 202.71118110236222 130.01196850393703 203.84881889763784 130.24629921259844 202.21606299212598 131.4368503937008 203.35370078740158 131.67118110236223 201.72472440944884 132.86173228346456 202.85858267716537 133.096062992126 201.2296062992126 134.28661417322837 202.36724409448817 134.52094488188976 200.7344881889764 135.71527559055122 201.872125984252 135.94582677165357 200.23937007874017 137.14015748031494 201.37700787401576 137.37070866141732 199.748031496063 138.56503937007875 200.88566929133862 138.7955905511811 199.25291338582682 139.98992125984253 200.3905511811024 140.2204724409449 198.75779527559058 141.41480314960629 199.89543307086615 141.64913385826773 198.26645669291338 142.8396850393701 199.40031496062994 143.0740157480315 197.77133858267717 144.26456692913388 198.90897637795277 144.4988976377953 197.27622047244097 145.68944881889763 198.41385826771656 145.92377952755908 196.78110236220473 147.11433070866144 197.91874015748033 147.34866141732283 196.2897637795276 148.5392125984252 197.42740157480318 148.77354330708664 195.79464566929136 149.96787401574807 196.93228346456692 150.19842519685042 195.29952755905515 151.39275590551182 196.43716535433072 151.62330708661418 194.80818897637795 152.8176377952756 195.94204724409454 153.04818897637796 194.31307086614174 154.2425196850394 195.45070866141734 154.47307086614177 193.8179527559055 155.66740157480316 194.95559055118116 155.90173228346458 193.3228346456693 157.09228346456695 194.4604724409449 157.32661417322836 192.83149606299216 158.51716535433076 193.96913385826775 158.75149606299212 192.33637795275595 159.94204724409448 193.4740157480315 160.17637795275593 191.84125984251972 161.36692913385826 192.97889763779528 161.6012598425197 191.34992125984255 162.79181102362207 192.48377952755908 163.0261417322835 190.8548031496063 164.2204724409449 191.99244094488193 164.45102362204727 190.35968503937008 165.64535433070867 191.4973228346457 165.87590551181103 189.8645669291339 167.07023622047248 191.00220472440947 167.3007874015748 189.3732283464567 168.49511811023626 190.5108661417323 168.72566929133862 188.8781102362205 169.92000000000002 190.0157480314961 170.15433070866146 188.3829921259843 171.34488188976383 189.52062992125985 171.5792125984252 187.8916535433071 172.76976377952758 189.02551181102365 173.004094488189 187.39653543307088 174.19464566929133 188.53417322834648 174.42897637795278 186.90141732283467 175.61952755905514 188.03905511811027 175.85385826771653 186.40629921259844 177.04440944881895 187.54393700787404 177.27874015748034 185.91496062992127 178.47307086614174 187.05259842519686 178.7036220472441 185.41984251968503 179.89795275590555 186.55748031496066 180.12850393700788 184.92472440944883 181.3228346456693 186.06236220472442 181.5533858267717 184.4296062992126 182.74771653543309 185.56724409448822 182.97826771653544 183.93826771653545 184.17259842519687 185.07590551181107 184.40692913385828 183.44314960629924 185.59748031496065 184.5807874015748 185.83181102362207 182.94803149606304 187.0223622047244 184.08566929133863 187.25669291338585 182.45669291338584 188.4472440944882 183.5905511811024 188.68157480314963 181.96157480314963 189.872125984252 183.09921259842523 190.1064566929134 181.4664566929134 191.30078740157484 182.604094488189 191.53133858267717 180.9713385826772 192.7256692913386 182.10897637795276 192.95622047244098 180.48000000000005 194.1505511811024 181.61763779527558 194.38110236220473 179.9848818897638 195.57543307086615 181.12251968503938 195.80598425196854 179.48976377952758 197.00031496062996 180.62740157480317 197.23464566929138 178.9984251968504 198.42519685039372 180.13228346456694 198.65952755905514 178.50330708661417 199.8500787401575 179.64094488188977 200.08440944881892 178.008188976378 201.27496062992128 179.14582677165356 201.50929133858273 177.51307086614173 202.69984251968503 178.65070866141735 202.93417322834645 177.0217322834646 204.12472440944885 178.15937007874018 203.87905511811022 177.08220472440948 205.45889763779527 176.61732283464568 204.1662992125984 175.60062992125987 205.74614173228346 175.1357480314961 204.4497637795276 174.11905511811028 206.02960629921262 173.65417322834645 204.73322834645668 172.63748031496064 206.3168503937008 172.1725984251969 205.02047244094487 171.15590551181103 206.60031496062993 170.69102362204725 205.30393700787403 169.67433070866144 206.88377952755908 169.20944881889767 205.5874015748032 168.19275590551183 207.17102362204727 167.72787401574803 205.87464566929134 166.71118110236222 207.4544881889764 166.24629921259844 206.1581102362205 165.2296062992126 207.7379527559055 164.76472440944883 206.44157480314965 163.748031496063 208.02519685039368 163.28314960629922 206.72881889763784 162.2664566929134 208.30866141732287 161.80157480314963 207.01228346456696 160.78488188976377 208.59212598425196 160.32000000000002 207.2957480314961 159.3033070866142 208.87937007874015 158.83842519685044 207.58299212598428 157.82173228346457 209.1628346456693 157.36062992125986 207.86645669291343 156.34015748031499 209.44629921259843 155.87905511811024 208.14992125984253 154.85858267716537 209.73354330708662 154.39748031496066 208.43716535433072 153.38078740157482 210.01700787401575 152.91590551181105 208.7206299212599 151.8992125984252 210.30047244094493 151.43433070866143 209.004094488189 150.41763779527562 210.58771653543312 149.95275590551182 209.29133858267718 148.93606299212598 210.8711811023622 148.47118110236224 209.5748031496063 147.45448818897643 211.1546456692914 146.9896062992126 209.85826771653547 145.97291338582679 211.44188976377959 145.508031496063 210.14551181102365 144.49133858267717 211.72535433070865 144.0264566929134 210.42897637795278 143.00976377952756 212.0088188976378 142.54488188976381 210.71244094488193 141.52818897637798 212.296062992126 141.0633070866142 210.99968503937012 140.04661417322836 212.57952755905512 139.58173228346456 211.28314960629922 138.56503937007875 212.86299212598428 138.10015748031498 211.5703937007874 137.08346456692917 213.15023622047246 136.61858267716536 211.85385826771653 135.60188976377952 213.4337007874016 135.13700787401575 212.1373228346457 134.1203149606299 213.7209448818898 133.6592125984252 212.42456692913387 132.63874015748033 214.00440944881893 132.17763779527561 212.70803149606303 131.15716535433071 214.28787401574806 130.69606299212597 212.99149606299216 129.67559055118113 214.57511811023625 129.2144881889764 213.27874015748034 128.19779527559052 214.8585826771654 127.73291338582678 213.5622047244095 126.71622047244095 215.1420472440945 126.25133858267718 213.84566929133857 125.23464566929133 215.4292913385827 124.76976377952758 214.13291338582675 123.75307086614175 215.71275590551187 123.28818897637795 214.41637795275597 122.27149606299213 215.99622047244097 121.80661417322838 214.69984251968503 120.78992125984253 216.28346456692915 120.32503937007876 214.98708661417322 119.30834645669293 216.56692913385828 118.84346456692916 215.27055118110238 117.82677165354332 216.85039370078744 117.36188976377953 215.5540157480315 116.34519685039372 217.13763779527562 115.88031496062995 215.8412598425197 114.86362204724409 217.42110236220475 114.39874015748032 216.12472440944885 113.3820472440945 217.7045669291339 112.91716535433072 216.408188976378 111.9004724409449 217.9918110236221 111.43559055118112 216.6954330708662 110.41889763779527 218.2752755905512 109.95779527559057 216.9788976377953 108.9373228346457 218.55874015748032 108.47622047244094 217.2623622047244 107.45574803149607 218.8459842519685 106.99464566929137 217.5496062992126 105.97417322834647 219.12944881889766 105.51307086614175 217.83307086614178 104.49637795275592 219.41291338582678 104.03149606299215 218.11653543307088 103.01480314960631 219.70015748031497 102.54992125984252 218.40377952755907 101.5332283464567 219.98362204724413 101.06834645669292 218.68724409448822 100.05165354330711 220.26708661417328 99.58677165354332 218.9744881889764 98.57007874015747 220.55433070866144 98.10519685039371 219.25795275590554 97.08850393700789 220.83779527559054 96.62362204724411 219.54141732283466 95.60692913385827 221.12503937007872 95.1420472440945 219.82866141732285 94.12535433070867 221.40850393700794 93.6604724409449 220.112125984252 92.64377952755908 221.691968503937 92.17889763779529 220.3955905511811 91.16220472440946 221.9792125984252 90.69732283464569 220.6828346456693 89.68062992125986 222.26267716535435 89.21574803149608 220.96629921259847 88.19905511811024 222.54614173228347 87.73417322834646 221.24976377952757 86.71748031496064 222.83338582677166 86.25259842519687 221.53700787401576 85.23590551181103 223.11685039370082 84.77480314960631 221.82047244094488 83.75433070866143 223.40031496062994 83.2932283464567 222.10393700787404 82.27275590551183 223.68755905511813 81.8116535433071 222.39118110236222 80.79496062992126 223.97102362204728 80.3300787401575 222.67464566929135 79.31338582677166 224.25448818897638 78.84850393700788 222.9581102362205 77.83181102362207 224.54173228346454 77.36692913385828 223.2453543307087 76.35023622047245 224.82519685039375 75.88535433070868 223.52881889763785 74.86866141732284 225.10866141732285 74.40377952755907 223.81228346456692 73.38708661417324 225.39590551181104 72.92220472440945 224.0995275590551 71.90551181102363 225.6793700787402 71.44062992125986 224.38299212598432 70.42393700787402 225.96283464566932 69.95905511811026 224.66645669291339 68.94236220472442 226.2500787401575 68.47748031496063 224.95370078740157 67.46078740157482 226.53354330708663 66.99590551181103 225.23716535433078 65.9792125984252 226.8170078740158 65.51433070866143 225.52062992125985 64.49763779527561 227.10425196850397 64.03275590551183 225.80787401574804 63.01606299212599 227.38771653543307 62.551181102362214 226.0913385826772 61.53448818897639 227.67118110236225 61.073385826771656 226.37480314960635 60.05291338582678 227.95842519685044 59.59181102362205 226.66204724409448 58.57133858267717 228.24188976377954 58.11023622047245 226.94551181102366 57.09354330708662 228.52913385826778 56.628661417322846 227.23275590551185 55.61196850393702 228.81259842519685 55.14708661417323 227.516220472441 54.13039370078741 229.096062992126 53.665511811023634 227.7996850393701 52.64881889763781 229.38330708661425 52.18393700787402 228.0869291338583 51.1672440944882 229.66677165354332 50.70236220472441 228.37039370078742 49.68566929133859 229.95023622047248 49.2207874015748 228.65385826771657 48.20409448818898 230.2374803149607 47.7392125984252 228.94110236220476 46.72251968503938 230.52094488188976 46.2576377952756 229.22456692913389 45.240944881889774 230.8044094488189 44.776062992125986 229.50803149606304 43.75937007874016 231.09165354330713 43.29448818897638 229.79527559055123 42.277795275590556 231.3751181102363 41.812913385826775 230.07874015748035 40.79622047244095 231.65858267716536 40.33133858267716 230.36220472440945 39.314645669291345 231.94582677165357 38.84976377952756 230.64944881889764 37.83307086614174 232.22929133858275 37.37196850393701 230.9329133858268 36.35149606299213 232.51275590551182 35.89039370078741 231.21637795275592 34.86992125984253 232.80000000000004 34.4088188976378 231.5036220472441 33.38834645669292 233.08346456692917 32.927244094488195 231.78708661417326 31.910551181102363 233.36692913385826 31.44566929133859 232.0705511811024 30.42897637795276 233.6541732283465 29.964094488188984 232.35779527559058 28.947401574803155 233.93763779527563 28.482519685039374 232.64125984251967 27.465826771653546 234.22110236220473 27.00094488188977 232.92472440944886 25.98425196850394 234.50834645669298 25.51937007874016 233.21196850393704 24.502677165354335 234.79181102362207 24.037795275590554 233.4954330708662 23.02110236220473 235.0752755905512 22.55622047244095 233.7788976377953 21.53952755905512 235.3625196850394 21.07464566929134 234.06614173228346 20.057952755905518 235.64598425196854 19.593070866141737 234.34960629921267 18.57637795275591 235.92944881889767 18.111496062992128 234.63685039370085 17.0948031496063 236.21669291338586 16.629921259842522 234.92031496062992 15.613228346456697 236.500157480315 15.148346456692915 235.2037795275591 14.13165354330709 236.78740157480314 13.66677165354331 235.4910236220473 12.65007874015748 237.07086614173232 12.188976377952757 235.77448818897636 11.168503937007875 237.35433070866142 10.707401574803152 236.05795275590555 9.68692913385827 237.6415748031496 9.225826771653542 236.34519685039373 8.209133858267718 237.92503937007876 7.744251968503937 236.62866141732283 6.727559055118111 238.2085039370079 6.262677165354331 236.912125984252 5.245984251968504 238.49574803149608 4.781102362204725 237.19937007874017 3.764409448818898 238.7792125984252 3.299527559055119 237.48283464566936 2.2828346456692916 239.06267716535436 1.8179527559055118 237.76629921259845 0.8012598425196853 239.34992125984255 0.33637795275590554 238.05354330708664 -0.6803149606299213 239.63338582677164 -1.145196850393701 238.33700787401577 -2.161889763779528 239.91685039370083 -2.626771653543307 238.62047244094492 -3.643464566929134 240.204094488189 -4.108346456692914 238.9077165354331 -5.12503937007874 240.4875590551181 -5.589921259842521 239.19118110236224 -6.606614173228347 240.77102362204727 -7.071496062992127 239.4746456692914 -8.088188976377953 241.05826771653543 -8.553070866141733 239.76188976377958 -9.569763779527559 241.34173228346458 -10.03464566929134 240.04535433070868 -11.051338582677165 241.6251968503937 -11.51244094488189 240.3288188976378 -12.53291338582677 241.9124409448819 -12.994015748031497 240.616062992126 -14.014488188976378 242.19590551181108 -14.475590551181103 240.89952755905514 -15.492283464566933 242.4793700787402 -15.957165354330712 241.18299212598427 -16.973858267716537 242.76661417322833 -17.438740157480318 241.47023622047246 -18.455433070866142 243.05007874015752 -18.920314960629923 241.7537007874016 -19.93700787401575 243.33354330708667 -20.40188976377953 242.04094488188986 -21.418582677165357 243.6207874015748 -21.883464566929135 242.32440944881893 -22.900157480314967 243.90425196850396 -23.365039370078744 242.60787401574802 -24.381732283464565 244.19149606299212 -24.846614173228346 242.89511811023627 -25.863307086614178 244.47496062992127 -26.32818897637795 243.17858267716537 -27.344881889763787 244.75842519685042 -27.80976377952756 243.4620472440945 -28.82645669291339 245.04566929133858 -29.291338582677167 243.74929133858274 -30.308031496062995 245.32913385826768 -30.77291338582677 244.03275590551183 -31.7896062992126 245.6125984251969 -32.25448818897638 244.31622047244096 -33.271181102362206 245.89984251968514 -33.73606299212599 244.60346456692918 -34.75275590551182 246.18330708661415 -35.21385826771654 244.8869291338583 -36.234330708661425 246.46677165354336 -36.695433070866144 245.17039370078743 -37.71590551181102 246.75401574803158 -38.17700787401576 245.45763779527564 -39.193700787401575 247.03748031496062 -39.65858267716536 245.74110236220477 -40.67527559055119 247.32094488188977 -41.14015748031496 246.02456692913387 -42.15685039370079 247.60818897637802 -42.62173228346457 246.31181102362206 -43.6384251968504 247.8916535433071 -44.10330708661418 246.59527559055124 -45.12000000000001 248.17511811023624 -45.584881889763786 246.8787401574803 -46.60157480314961 248.46236220472446 -47.06645669291339 247.16598425196852 -48.083149606299216 248.74582677165353 -48.548031496063004 247.44944881889768 -49.56472440944883 249.0292913385827 -50.0296062992126 247.7329133858268 -51.046299212598434 249.31653543307092 -51.51118110236221 248.020157480315 -52.52787401574803 249.60000000000005 -52.99275590551182 248.30362204724415 -54.00944881889764 249.88346456692915 -54.47433070866142 248.58708661417327 -55.49102362204725 250.1707086614174 -55.95590551181103 248.87433070866146 -56.972598425196864 250.45417322834652 -57.43748031496064 249.15779527559056 -58.45417322834646 250.73763779527562 -58.91527559055119 249.44503937007875 -59.935748031496075 251.02488188976386 -60.3968503937008 249.72850393700793 -61.417322834645674 251.30834645669296 -61.8784251968504 250.01196850393703 -62.89889763779528 251.59559055118112 -63.36 250.2992125984252 -64.37669291338584 251.87905511811027 -64.84157480314961 250.58267716535434 -65.85826771653544 252.16251968503943 -66.32314960629921 250.8661417322835 -67.33984251968505 252.4497637795276 -67.80472440944882 251.15338582677168 -68.82141732283466 252.73322834645674 -69.28629921259844 251.4368503937008 -70.30299212598426 253.0166929133859 -70.76787401574805 251.72031496062996 -71.78456692913386 253.30393700787403 -72.24944881889765 252.00755905511818 -73.26614173228349 253.5874015748032 -73.73102362204725 252.29102362204725 -74.74771653543309 253.8708661417323 -75.21259842519686 252.57448818897637 -76.22929133858268 254.15811023622047 -76.69417322834647 252.86173228346462 -77.7108661417323 254.44157480314965 -78.17574803149607 253.14519685039372 -79.1924409448819 254.72503937007878 -79.65732283464567 253.42866141732284 -80.67401574803151 255.0122834645669 -81.13889763779528 253.71590551181106 -82.1555905511811 255.2957480314961 -82.6204724409449 253.99937007874018 -83.63716535433073 255.57921259842524 -84.09826771653545 254.2828346456693 -85.11874015748033 255.86645669291337 -85.57984251968506 254.57007874015753 -86.60031496062993 256.14992125984253 -87.06141732283466 254.85354330708665 -88.07811023622048 256.4333858267717 -88.54299212598426 255.23527559055123 -88.1272440944882 255.6245669291339 -89.72976377952757 254.09385826771654 -89.11748031496064 254.48314960629924 -90.71622047244094 252.95622047244098 -90.10393700787402 253.34551181102364 -91.70267716535434 251.81480314960632 -91.09039370078742 252.204094488189 -92.69291338582678 250.67338582677166 -92.07685039370078 251.0626771653544 -93.67937007874016 249.53196850393707 -93.06330708661419 249.9212598425197 -94.66582677165356 248.39433070866144 -94.05354330708664 248.78362204724414 -95.65228346456693 247.2529133858268 -95.04 247.64220472440948 -96.64251968503937 246.1114960629922 -96.0264566929134 246.50078740157483 -97.62897637795277 244.97007874015748 -97.01291338582679 245.35937007874023 -98.61543307086615 243.8324409448819 -98.00314960629922 244.21795275590551 -99.60188976377955 242.69102362204725 -98.9896062992126 243.08031496062995 -100.58834645669292 241.5496062992126 -99.97606299212602 241.93889763779535 -101.57858267716537 240.40818897637797 -100.96251968503938 240.79748031496064 -102.56503937007876 239.27055118110243 -101.94897637795277 239.656062992126 -103.55149606299214 238.12913385826778 -102.9392125984252 238.5184251968504 -104.53795275590551 236.9877165354331 -103.92566929133861 237.37700787401576 -105.52818897637796 235.84629921259844 -104.91212598425197 236.23559055118113 -106.51464566929135 234.70866141732284 -105.89858267716536 235.09417322834648 -107.50110236220473 233.56724409448822 -106.88881889763782 233.95653543307088 -108.48755905511814 232.4258267716536 -107.8752755905512 232.81511811023626 -109.4740157480315 231.28440944881896 -108.86173228346459 231.6737007874016 -110.46425196850393 230.14677165354337 -109.84818897637797 230.53228346456694 -111.45070866141734 229.00535433070868 -110.83464566929135 229.39464566929138 -112.43716535433073 227.86393700787403 -111.82488188976379 228.25322834645675 -113.42362204724411 226.72251968503937 -112.8113385826772 227.11181102362212 -114.41385826771655 225.5848818897638 -113.79779527559057 225.9703937007874 -115.40031496062996 224.44346456692915 -114.78425196850394 224.83275590551185 -116.38677165354332 223.30204724409455 -115.77448818897639 223.6913385826772 -117.3732283464567 222.16062992125984 -116.76094488188978 222.54992125984253 -118.35968503937008 221.02299212598427 -117.74740157480316 221.40850393700794 -119.34992125984252 219.88157480314962 -118.73385826771656 220.27086614173226 -120.3363779527559 218.74015748031496 -119.72031496062993 219.12944881889766 -121.3228346456693 217.59874015748034 -120.71055118110237 217.988031496063 -122.30929133858267 216.46110236220474 -121.69700787401575 216.84661417322837 -123.29574803149607 215.31968503937009 -122.68346456692916 215.70897637795278 -124.28598425196853 214.17826771653546 -123.66992125984252 214.56755905511812 -125.27244094488192 213.0368503937008 -124.6563779527559 213.4261417322835 -126.25889763779529 211.8992125984252 -125.64661417322836 212.28472440944887 -127.2453543307087 210.75779527559058 -126.63307086614175 211.14708661417325 -128.23559055118113 209.61637795275593 -127.61952755905511 210.00566929133862 -129.22204724409448 208.47496062992133 -128.60598425196852 208.86425196850396 -130.2085039370079 207.33354330708661 -129.59622047244096 207.7228346456693 -131.19496062992127 206.19590551181105 -130.58267716535434 206.58519685039374 -132.18141732283465 205.0544881889764 -131.56913385826775 205.44377952755903 -133.17165354330712 203.91307086614174 -132.55559055118113 204.3023622047244 -134.1581102362205 202.7716535433071 -133.54204724409448 203.16094488188978 -135.14456692913387 201.63401574803152 -134.53228346456694 202.02330708661418 -136.13102362204728 200.4925984251969 -135.51874015748032 200.88188976377955 -137.1212598425197 199.3511811023622 -136.5051968503937 199.7404724409449 -138.10771653543307 198.20976377952758 -137.4916535433071 198.59905511811027 -139.09417322834648 197.072125984252 -138.48188976377952 197.45763779527562 -140.08062992125986 195.93070866141738 -139.46834645669293 196.32 -141.06708661417323 194.7892913385827 -140.45480314960633 195.17858267716537 -142.0573228346457 193.64787401574807 -141.4412598425197 194.03716535433074 -143.04377952755908 192.51023622047245 -142.42771653543306 192.89574803149608 -144.03023622047243 191.36881889763782 -143.41795275590553 191.7581102362205 -145.01669291338584 190.2274015748032 -144.4044094488189 190.61669291338583 -146.00692913385828 189.08598425196854 -145.39086614173232 189.4752755905512 -146.99338582677166 187.94834645669295 -146.37732283464567 188.33385826771652 -147.97984251968506 186.8069291338583 -147.3675590551181 187.19622047244098 -148.96629921259844 185.66551181102363 -148.35401574803151 186.0548031496063 -149.95275590551182 184.524094488189 -149.3404724409449 184.91338582677167 -150.9429921259843 183.38645669291344 -150.3269291338583 183.77196850393702 -151.92944881889767 182.24503937007876 -151.31338582677165 182.63433070866145 -152.91590551181105 181.10362204724413 -152.30362204724412 181.49291338582682 -153.90236220472443 179.96220472440947 -153.2900787401575 180.35149606299217 -154.89259842519687 178.82456692913388 -154.2765354330709 179.21007874015748 -155.87905511811024 177.68314960629922 -155.26299212598425 178.07244094488192 -156.86551181102362 176.5417322834646 -156.2532283464567 176.93102362204726 -157.85196850393703 175.40031496062994 -157.2396850393701 175.7896062992126 -158.83842519685044 174.26267716535435 -158.22614173228348 174.64818897637798 -159.82866141732285 173.1212598425197 -159.21259842519686 173.5105511811024 -160.81511811023626 171.97984251968506 -160.19905511811027 172.36913385826773 -161.80157480314963 170.8384251968504 -161.1892913385827 171.2277165354331 -162.78803149606298 169.70078740157481 -162.17574803149608 170.08629921259848 -163.77826771653545 168.5593700787402 -163.1622047244095 168.94866141732285 -164.76472440944883 167.41795275590553 -164.14866141732284 167.80724409448823 -165.7511811023622 166.27653543307088 -165.13889763779528 166.66582677165357 -166.7376377952756 165.13889763779528 -166.1253543307087 165.52440944881894 -167.724094488189 163.99748031496063 -167.11181102362207 164.38677165354332 -168.71433070866144 162.856062992126 -168.09826771653545 163.2453543307087 -169.70078740157481 161.71464566929134 -169.08472440944882 162.103937007874 -170.68724409448822 160.57322834645672 -170.07496062992126 160.96251968503938 -171.67370078740157 159.4355905511811 -171.06141732283464 159.8248818897638 -172.66393700787404 158.29417322834647 -172.04787401574805 158.68346456692916 -173.65039370078742 157.1527559055118 -173.0343307086614 157.54204724409448 -174.63685039370083 156.01133858267718 -174.02456692913387 156.40062992125985 -175.62330708661418 154.8737007874016 -175.01102362204728 155.26299212598425 -176.60976377952758 153.73228346456693 -175.99748031496065 154.1215748031496 -177.60000000000002 152.5908661417323 -176.98393700787403 152.98015748031497 -178.5864566929134 151.44944881889765 -177.9703937007874 151.83874015748034 -179.57291338582678 150.31181102362208 -178.96062992125985 150.70110236220472 -180.5593700787402 149.17039370078743 -179.94708661417323 149.5596850393701 -181.5496062992126 148.02897637795277 -180.93354330708664 148.41826771653547 -182.536062992126 146.88755905511812 -181.92000000000002 147.27685039370078 -183.5225196850394 145.74992125984255 -182.91023622047248 146.13543307086616 -184.50897637795276 144.6085039370079 -183.89669291338583 144.99779527559056 -185.49543307086617 143.46708661417327 -184.88314960629924 143.85637795275593 -186.4856692913386 142.32566929133856 -185.86960629921262 142.71496062992125 -187.472125984252 141.18803149606302 -186.856062992126 141.57354330708662 -188.45858267716537 140.04661417322836 -187.84629921259844 140.435905511811 -189.44503937007875 138.90519685039374 -188.83275590551185 139.29448818897637 -190.4352755905512 137.76377952755905 -189.81921259842522 138.15307086614172 -191.42173228346456 136.6261417322835 -190.8056692913386 137.0116535433071 -192.40818897637797 135.48472440944883 -191.79212598425198 135.8740157480315 -193.39464566929135 134.3433070866142 -192.78236220472442 134.73259842519687 -194.38110236220473 133.20188976377955 -193.76881889763783 133.5911811023622 -195.37133858267717 132.06425196850395 -194.75527559055124 132.44976377952756 -196.35779527559058 130.9228346456693 -195.7417322834646 131.31212598425196 -197.34425196850395 129.78141732283467 -196.73196850393703 130.17070866141734 -198.33070866141733 128.64000000000001 -197.71842519685043 129.0292913385827 -199.31716535433074 127.50236220472443 -198.7048818897638 127.88787401574805 -200.30740157480318 126.36094488188978 -199.6913385826772 126.75023622047247 -201.29385826771656 125.21952755905514 -200.67779527559054 125.60881889763782 -202.28031496062994 124.07811023622048 -201.66803149606298 124.46740157480318 -203.26677165354332 122.94047244094489 -202.65448818897642 123.32598425196852 -204.25700787401576 121.79905511811026 -203.6409448818898 122.18834645669294 -205.24346456692916 120.6576377952756 -204.62740157480317 121.04692913385827 -206.2299212598425 119.51622047244098 -205.61763779527558 119.90551181102364 -207.21637795275592 118.37858267716538 -206.604094488189 118.76409448818897 -208.20283464566933 117.23716535433073 -207.59055118110237 117.62645669291342 -209.19307086614177 116.09574803149606 -208.57700787401578 116.48503937007874 -210.17952755905517 114.95433070866143 -209.56346456692918 115.34362204724411 -211.16598425196852 113.81669291338582 -210.55370078740162 114.20220472440947 -212.1524409448819 112.6752755905512 -211.54015748031503 113.06456692913386 -213.1426771653543 111.53385826771655 -212.52661417322838 111.92314960629922 -214.12913385826772 110.3924409448819 -213.51307086614173 110.78173228346459 -215.1155905511811 109.25102362204726 -214.50330708661417 109.64031496062994 -216.1020472440945 108.11338582677168 -215.48976377952758 108.50267716535434 -217.0885039370079 106.97196850393702 -216.47622047244096 107.36125984251969 -218.07874015748035 105.83055118110238 -217.46267716535436 106.21984251968505 -219.06519685039376 104.68913385826772 -218.44913385826777 105.07842519685039 -220.0516535433071 103.55149606299214 -219.43937007874018 103.94078740157481 -221.03811023622046 102.41007874015747 -220.4258267716536 102.79937007874017 -222.0283464566929 101.26866141732285 -221.41228346456697 101.65795275590551 -223.0148031496063 100.1272440944882 -222.39874015748038 100.51653543307087 -224.00125984251972 98.9896062992126 -223.38897637795276 99.37511811023623 -224.9877165354331 97.84818897637795 -224.37543307086617 98.23748031496065 -225.9741732283465 96.70677165354331 -225.36188976377952 97.09606299212601 -226.9644094488189 95.56535433070867 -226.34834645669292 95.95464566929135 -227.95086614173232 94.42771653543309 -227.33480314960633 94.8132283464567 -228.9373228346457 93.28629921259844 -228.32503937007877 93.6755905511811 -229.9237795275591 92.14488188976378 -229.31149606299218 92.53417322834648 -230.9140157480315 91.00346456692914 -230.29795275590556 91.39275590551182 -231.9004724409449 89.86582677165356 -231.28440944881896 90.25133858267718 -232.8869291338583 88.7244094488189 -232.27464566929137 89.11370078740158 -233.87338582677165 87.58299212598425 -233.26110236220475 87.97228346456693 -234.85984251968506 86.4415748031496 -234.2475590551181 86.83086614173229 -235.8500787401575 85.30393700787401 -235.2340157480315 85.68944881889765 -236.83653543307088 84.16251968503937 -236.22047244094492 84.55181102362205 -237.82299212598429 83.02110236220474 -237.21070866141736 83.41039370078741 -238.8094488188977 81.87968503937009 -238.1971653543307 82.26897637795277 -239.7996850393701 80.7420472440945 -239.1836220472441 81.12755905511811 -240.78614173228348 79.60062992125987 -240.17007874015752 79.98992125984253 -241.7725984251969 78.45921259842521 -241.16031496062996 78.84850393700788 -242.7590551181103 77.31779527559056 -242.14677165354334 77.70708661417324 -243.74551181102365 76.18015748031497 -243.1332283464567 76.5656692913386 -244.7357480314961 75.03874015748032 -244.11968503937015 75.428031496063 -245.72220472440944 73.89732283464568 -245.1061417322835 74.28661417322836 -246.70866141732284 72.75590551181104 -246.09637795275594 73.14519685039372 -247.69511811023625 71.61826771653544 -247.0828346456693 72.00377952755906 -248.6853543307087 70.47685039370079 -248.0692913385827 70.86614173228347 -249.67181102362207 69.33543307086615 -249.0557480314961 69.72472440944884 -250.65826771653542 68.1940157480315 -250.04598425196855 68.58330708661418 -251.64472440944888 67.05637795275592 -251.0324409448819 67.44188976377953 -252.63118110236223 65.91496062992127 -252.0188976377953 66.30425196850395 -253.62141732283467 64.77354330708663 -253.0053543307087 65.16283464566929 -254.60787401574802 63.63212598425197 -253.9918110236221 64.02141732283465 -255.59433070866143 62.490708661417315 -254.98204724409453 62.88000000000001 -256.58078740157487 61.35307086614174 -255.96850393700788 61.74236220472441 -257.5710236220473 60.211653543307094 -256.9549606299213 60.60094488188976 -258.5574803149606 59.07023622047244 -257.9414173228347 59.45952755905512 -259.54393700787404 57.928818897637804 -258.9316535433071 58.31811023622048 -260.53039370078744 56.7911811023622 -259.9181102362205 57.18047244094488 -261.5168503937008 55.64976377952756 -260.9045669291339 56.03905511811024 -262.50708661417326 54.50834645669291 -261.8910236220473 54.89763779527559 -263.4935433070866 53.366929133858264 -262.8774803149607 53.75622047244095 -264.48 52.229291338582684 -263.8677165354331 52.618582677165364 -265.4664566929134 51.08787401574803 -264.85417322834644 50.755275590551186 -266.5927559055118 50.52472440944883 -264.96000000000004 49.330393700787404 -266.0976377952756 49.09984251968504 -264.46866141732283 47.90551181102363 -265.60629921259846 47.67496062992127 -263.9735433070867 46.48062992125985 -265.11118110236225 46.25007874015749 -263.4784251968504 45.055748031496066 -264.61606299212605 44.82141732283465 -262.9870866141732 43.630866141732284 -264.1247244094488 43.396535433070866 -262.4919685039371 42.20598425196851 -263.62960629921264 41.97165354330709 -261.9968503937008 40.78110236220472 -263.1344881889764 40.54677165354331 -261.50173228346455 39.356220472440945 -262.63937007874017 39.121889763779535 -261.0103937007874 37.93133858267717 -262.148031496063 37.69700787401575 -260.5152755905512 36.502677165354335 -261.65291338582676 36.27212598425197 -260.020157480315 35.07779527559056 -261.15779527559056 34.8472440944882 -259.52881889763785 33.65291338582677 -260.66267716535435 33.422362204724415 -259.0337007874016 32.228031496063 -260.1713385826772 31.997480314960633 -258.5385826771654 30.80314960629922 -259.676220472441 30.568818897637794 -258.0434645669292 29.37826771653543 -259.18110236220474 29.14393700787402 -257.55212598425203 27.953385826771655 -258.68976377952754 27.71905511811024 -257.0570078740158 26.528503937007876 -258.19464566929133 26.294173228346455 -256.56188976377956 25.103622047244098 -257.6995275590551 24.869291338582677 -256.07055118110236 23.674960629921262 -257.204409448819 23.4444094488189 -255.57543307086613 22.250078740157484 -256.7130708661418 22.01952755905512 -255.08031496062995 20.825196850393702 -256.2179527559055 20.59464566929134 -254.5851968503937 19.40031496062992 -255.72283464566925 19.16976377952756 -254.09385826771654 17.975433070866146 -255.2314960629921 17.741102362204725 -253.59874015748036 16.55055118110236 -254.73637795275596 16.316220472440946 -253.1036220472441 15.125669291338582 -254.24125984251972 14.891338582677168 -252.61228346456696 13.700787401574805 -253.74614173228352 13.466456692913388 -252.11716535433075 12.275905511811027 -253.25480314960632 12.041574803149608 -251.62204724409452 10.851023622047245 -252.7596850393701 10.61669291338583 -251.1269291338583 9.422362204724411 -252.26456692913388 9.191811023622048 -250.63559055118108 7.99748031496063 -251.7732283464567 7.766929133858268 -250.1404724409449 6.572598425196851 -251.27811023622047 6.3420472440944895 -249.64535433070873 5.147716535433071 -250.78299212598426 4.917165354330709 -249.15401574803155 3.722834645669292 -250.287874015748 3.4885039370078745 -248.6588976377953 2.297952755905512 -249.79653543307086 2.063622047244095 -248.16377952755906 0.8730708661417325 -249.30141732283468 0.6387401574803151 -247.66866141732285 -0.5518110236220473 -248.80629921259842 -0.7861417322834646 -247.1773228346457 -1.9766929133858273 -248.31496062992127 -2.211023622047244 -246.68220472440947 -3.4015748031496065 -247.8198425196851 -3.6359055118110235 -246.18708661417327 -4.830236220472441 -247.32472440944883 -5.060787401574804 -245.69574803149612 -6.255118110236221 -246.82960629921263 -6.485669291338583 -245.20062992125986 -7.6800000000000015 -246.33826771653548 -7.910551181102363 -244.70551181102365 -9.104881889763778 -245.84314960629928 -9.335433070866143 -244.21039370078748 -10.52976377952756 -245.34803149606304 -10.764094488188977 -243.71905511811025 -11.95464566929134 -244.8566929133858 -12.188976377952757 -243.223937007874 -13.37952755905512 -244.3615748031496 -13.613858267716534 -242.7288188976378 -14.804409448818898 -243.86645669291343 -15.038740157480316 -242.23370078740157 -16.229291338582676 -243.37133858267717 -16.463622047244098 -241.74236220472443 -17.65417322834646 -242.88000000000002 -17.888503937007876 -241.24724409448817 -19.082834645669294 -242.3848818897638 -19.313385826771658 -240.75212598425202 -20.507716535433076 -241.88976377952758 -20.73826771653544 -240.26078740157487 -21.93259842519685 -241.39464566929138 -22.163149606299214 -239.7656692913386 -23.357480314960632 -240.90330708661418 -23.588031496062992 -239.27055118110243 -24.782362204724414 -240.40818897637797 -25.01669291338583 -238.77543307086617 -26.207244094488193 -239.91307086614174 -26.44157480314961 -238.28409448818903 -27.632125984251974 -239.4217322834646 -27.866456692913392 -237.78897637795276 -29.05700787401575 -238.9266141732284 -29.291338582677167 -237.2938582677166 -30.481889763779527 -238.43149606299215 -30.71622047244095 -236.80251968503944 -31.906771653543313 -237.9363779527559 -32.14110236220473 -236.30740157480318 -33.335433070866145 -237.44503937007875 -33.56598425196851 -235.81228346456697 -34.76031496062993 -236.94992125984254 -34.99086614173228 -235.31716535433074 -36.1851968503937 -236.45480314960633 -36.415748031496065 -234.82582677165357 -37.61007874015748 -235.9634645669292 -37.84062992125985 -234.33070866141733 -39.034960629921265 -235.46834645669293 -39.26929133858268 -233.83559055118116 -40.45984251968504 -234.97322834645675 -40.69417322834646 -233.34425196850398 -41.88472440944882 -234.4781102362205 -42.11905511811024 -232.84913385826772 -43.309606299212604 -233.98677165354334 -43.54393700787402 -232.3540157480315 -44.734488188976385 -233.4916535433071 -44.968818897637796 -231.85889763779528 -46.15937007874016 -232.9965354330709 -46.393700787401585 -231.36755905511814 -47.588031496062996 -232.50519685039376 -47.81858267716536 -230.87244094488193 -49.01291338582678 -232.0100787401575 -49.243464566929134 -230.3773228346457 -50.43779527559057 -231.51496062992132 -50.66834645669292 -229.88598425196852 -51.86267716535433 -231.01984251968506 -52.09322834645669 -229.3908661417323 -53.287559055118116 -230.5285039370079 -53.52188976377953 -228.89574803149608 -54.712440944881905 -230.03338582677165 -54.94677165354331 -228.40062992125985 -56.13732283464567 -229.53826771653544 -56.37165354330708 -227.9092913385827 -57.562204724409455 -229.0469291338583 -57.79653543307087 -227.4141732283465 -58.987086614173236 -228.55181102362204 -59.22141732283465 -226.91905511811024 -60.41196850393702 -228.05669291338592 -60.64629921259842 -226.4277165354331 -61.84062992125983 -227.56157480314965 -62.07118110236221 -225.9325984251969 -63.265511811023636 -227.07023622047245 -63.496062992125985 -225.43748031496065 -64.69039370078741 -226.57511811023625 -64.92094488188977 -224.94236220472445 -66.11527559055118 -226.08 -66.34960629921261 -224.45102362204724 -67.54015748031497 -225.58866141732287 -67.77448818897639 -223.95590551181107 -68.96503937007876 -225.0935433070866 -69.19937007874016 -223.4607874015748 -70.38992125984251 -224.59842519685043 -70.62425196850396 -222.96566929133866 -71.81480314960632 -224.10330708661417 -72.04913385826772 -222.47433070866145 -73.23968503937009 -223.61196850393702 -73.4740157480315 -221.9792125984252 -74.66834645669293 -223.11685039370082 -74.89889763779529 -221.484094488189 -76.0932283464567 -222.6217322834646 -76.32377952755907 -220.99275590551179 -77.5181102362205 -222.12661417322838 -77.74866141732284 -220.49763779527566 -78.94299212598426 -221.6352755905512 -79.17354330708663 -220.0025196850394 -80.36787401574803 -221.14015748031497 -80.60220472440946 -219.50740157480317 -81.79275590551181 -220.64503937007876 -82.02708661417324 -219.01606299212602 -83.2176377952756 -220.15370078740162 -83.45196850393701 -218.52094488188976 -84.64251968503937 -219.65858267716538 -84.87685039370079 -218.02582677165356 -86.06740157480314 -219.16346456692918 -86.30173228346459 -217.53448818897635 -87.49228346456695 -218.66834645669297 -87.72661417322834 -217.0393700787402 -88.92094488188977 -218.17700787401577 -89.15149606299214 -216.54425196850394 -90.34582677165355 -217.68188976377957 -90.57637795275592 -216.04913385826777 -91.77070866141733 -217.18677165354333 -92.00125984251969 -215.55779527559056 -93.19559055118111 -216.6954330708662 -93.42614173228347 -215.06267716535436 -94.6204724409449 -216.20031496062992 -94.85480314960633 -214.56755905511812 -96.04535433070868 -215.70519685039372 -96.2796850393701 -214.07622047244095 -97.47023622047244 -215.21007874015754 -97.70456692913386 -213.58110236220477 -98.89511811023624 -214.71874015748034 -99.12944881889766 -213.0859842519685 -100.32000000000002 -214.22362204724408 -100.55433070866142 -212.5908661417323 -101.7448818897638 -213.72850393700793 -101.9792125984252 -212.09952755905516 -103.1735433070866 -213.23716535433073 -103.404094488189 -211.60440944881893 -104.5984251968504 -212.74204724409452 -104.82897637795277 -211.10929133858272 -106.02330708661418 -212.24692913385826 -106.25385826771655 -210.61795275590552 -107.44818897637795 -211.75181102362208 -107.67874015748032 -210.12283464566931 -108.87307086614173 -211.26047244094494 -109.10740157480316 -209.62771653543308 -110.29795275590553 -210.76535433070867 -110.53228346456694 -209.13259842519682 -111.72283464566928 -210.27023622047244 -111.95716535433073 -208.64125984251967 -113.14771653543308 -209.77889763779527 -113.3820472440945 -208.14614173228352 -114.57259842519686 -209.2837795275591 -114.80692913385829 -207.6510236220473 -115.99748031496063 -208.78866141732283 -116.23181102362204 -207.15968503937012 -117.42614173228348 -208.29354330708665 -117.65669291338584 -206.66456692913385 -118.85102362204728 -207.8022047244095 -119.08157480314962 -206.16944881889768 -120.27590551181103 -207.30708661417324 -120.50645669291342 -205.67433070866142 -121.70078740157483 -206.81196850393704 -121.93133858267717 -205.18299212598427 -123.1256692913386 -206.32062992125984 -123.36000000000004 -204.68787401574804 -124.55055118110238 -205.82551181102363 -124.78488188976378 -204.19275590551183 -125.97543307086619 -205.3303937007874 -126.20976377952756 -203.69763779527563 -127.40031496062993 -204.83527559055125 -127.63464566929137 -203.20629921259845 -128.82519685039372 -204.34393700787408 -129.0595275590551 -202.71118110236222 -130.2500787401575 -203.84881889763784 -130.4844094488189 -202.21606299212598 -131.67874015748035 -203.35370078740158 -131.9092913385827 -201.72472440944884 -133.10362204724407 -202.85858267716537 -133.33417322834646 -201.2296062992126 -134.52850393700788 -202.36724409448817 -134.75905511811024 -200.7344881889764 -135.95338582677167 -201.872125984252 -136.18393700787402 -200.23937007874017 -137.37826771653545 -201.37700787401576 -137.61259842519684 -199.748031496063 -138.80314960629923 -200.88566929133862 -139.03748031496065 -199.25291338582682 -140.228031496063 -200.3905511811024 -140.46236220472443 -198.75779527559058 -141.65291338582676 -199.89543307086615 -141.88724409448818 -198.26645669291338 -143.07779527559057 -199.40031496062994 -143.31212598425196 -197.77133858267717 -144.50267716535433 -198.90897637795277 -144.73700787401577 -197.27622047244097 -145.93133858267714 -198.41385826771656 -146.16188976377953 -196.78110236220473 -147.35622047244095 -197.91874015748033 -147.5867716535433 -196.2897637795276 -148.78110236220476 -197.42740157480318 -149.0116535433071 -195.79464566929136 -150.2059842519685 -196.93228346456692 -150.44031496062993 -195.29952755905515 -151.6308661417323 -196.43716535433072 -151.86519685039372 -194.80818897637795 -153.05574803149608 -195.94204724409454 -153.2900787401575 -194.31307086614174 -154.48062992125983 -195.45070866141734 -154.71496062992128 -193.8179527559055 -155.90551181102364 -194.95559055118116 -156.13984251968506 -193.3228346456693 -157.33039370078743 -194.4604724409449 -157.56472440944884 -192.83149606299216 -158.75905511811027 -193.96913385826775 -158.98960629921262 -192.33637795275595 -160.18393700787402 -193.4740157480315 -160.41448818897638 -191.84125984251972 -161.60881889763783 -192.97889763779528 -161.83937007874016 -191.34992125984255 -163.0337007874016 -192.48377952755908 -163.26425196850397 -190.8548031496063 -164.45858267716537 -191.99244094488193 -164.69291338582678 -190.35968503937008 -165.88346456692915 -191.4973228346457 -166.11779527559057 -189.8645669291339 -167.30834645669296 -191.00220472440947 -167.54267716535435 -189.3732283464567 -168.7332283464567 -190.5108661417323 -168.96755905511816 -188.8781102362205 -170.1581102362205 -190.0157480314961 -170.3924409448819 -188.3829921259843 -171.58299212598428 -189.52062992125985 -171.8173228346457 -187.8916535433071 -173.01165354330712 -189.02551181102365 -173.24220472440948 -187.39653543307088 -174.43653543307087 -188.53417322834648 -174.66708661417323 -186.90141732283467 -175.86141732283468 -188.03905511811027 -176.09196850393704 -186.40629921259844 -177.2862992125984 -187.54393700787404 -177.51685039370085 -185.91496062992127 -178.71118110236222 -187.05259842519686 -178.94551181102364 -185.41984251968503 -180.13606299212603 -186.55748031496066 -180.37039370078742 -184.92472440944883 -181.56094488188978 -186.06236220472442 -181.7952755905512 -184.4296062992126 -182.98582677165354 -185.56724409448822 -183.22015748031498 -183.93826771653545 -184.41070866141735 -185.07590551181107 -184.64503937007873 -183.44314960629924 -185.8355905511811 -184.5807874015748 -186.06992125984254 -182.94803149606304 -187.26425196850394 -184.08566929133863 -187.4948031496063 -182.45669291338584 -188.68913385826775 -183.5905511811024 -188.9196850393701 -181.96157480314963 -190.1140157480315 -183.09921259842523 -190.3445669291339 -181.4664566929134 -191.5388976377953 -182.604094488189 -191.76944881889764 -180.9713385826772 -192.9637795275591 -182.10897637795276 -193.1981102362205 -180.48000000000005 -194.38866141732288 -181.61763779527558 -194.6229921259843 -179.9848818897638 -195.8135433070866 -181.12251968503938 -196.04787401574805 -179.48976377952758 -197.23842519685041 -180.62740157480317 -197.47275590551186 -178.9984251968504 -198.6633070866142 -180.13228346456694 -198.8976377952756 -178.50330708661417 -200.08818897637795 -179.64094488188977 -200.32251968503937 -178.008188976378 -201.5168503937008 -179.14582677165356 -201.74740157480318 -177.51307086614173 -202.9417322834646 -178.65070866141735 -203.17228346456693 -177.0217322834646 -204.36661417322836 -178.15937007874018 -204.12094488188976 -177.08220472440948 -205.70078740157481 -176.61732283464568 -204.40440944881894 -175.60062992125987 -205.98425196850394 -175.1357480314961 -204.68787401574804 -174.11905511811028 -206.27149606299213 -173.65417322834645 -204.97511811023622 -172.63748031496064 -206.55496062992128 -172.1725984251969 -205.2585826771654 -171.15590551181103 -206.8384251968504 -170.69102362204725 -205.5420472440945 -169.67433070866144 -207.1256692913386 -169.20944881889767 -205.8292913385827 -168.19275590551183 -207.40913385826775 -167.72787401574803 -206.11275590551185 -166.71118110236222 -207.69259842519688 -166.24629921259844 -206.39622047244097 -165.2296062992126 -207.97984251968506 -164.76472440944883 -206.68346456692916 -163.748031496063 -208.26330708661416 -163.28314960629922 -206.9669291338583 -162.2664566929134 -208.54677165354332 -161.80157480314963 -207.25039370078744 -160.78488188976377 -208.8340157480315 -160.32000000000002 -207.53763779527563 -159.3033070866142 -209.11748031496063 -158.83842519685044 -207.82110236220473 -157.82173228346457 -209.40094488188984 -157.36062992125986 -208.1045669291339 -156.34015748031499 -209.68818897637797 -155.87905511811024 -208.3918110236221 -154.85858267716537 -209.9716535433071 -154.39748031496066 -208.6752755905512 -153.38078740157482 -210.25511811023625 -152.91590551181105 -208.95874015748035 -151.8992125984252 -210.54236220472444 -151.43433070866143 -209.2459842519685 -150.41763779527562 -210.82582677165357 -149.95275590551182 -209.52944881889766 -148.93606299212598 -211.10929133858272 -148.47118110236224 -209.8129133858268 -147.45448818897643 -211.3965354330709 -146.9896062992126 -210.10015748031498 -145.97291338582679 -211.68 -145.508031496063 -210.38362204724413 -144.49133858267717 -211.9634645669292 -144.0264566929134 -210.66708661417323 -143.00976377952756 -212.25070866141738 -142.54488188976381 -210.95433070866142 -141.52818897637798 -212.53417322834645 -141.0633070866142 -211.23779527559054 -140.04661417322836 -212.81763779527563 -139.58173228346456 -211.52503937007873 -138.56503937007875 -213.10488188976382 -138.10015748031498 -211.80850393700788 -137.08346456692917 -213.38834645669294 -136.61858267716536 -212.091968503937 -135.60188976377952 -213.67559055118107 -135.13700787401575 -212.3792125984252 -134.1203149606299 -213.95905511811026 -133.6592125984252 -212.6626771653544 -132.63874015748033 -214.2425196850394 -132.17763779527561 -212.94614173228348 -131.15716535433071 -214.5297637795276 -130.69606299212597 -213.23338582677167 -129.67559055118113 -214.8132283464567 -129.2144881889764 -213.51685039370082 -128.19779527559052 -215.09669291338588 -127.73291338582678 -213.80031496062992 -126.71622047244095 -215.38393700787407 -126.25133858267718 -214.0875590551181 -125.23464566929133 -215.66740157480316 -124.76976377952758 -214.3710236220473 -123.75307086614175 -215.9508661417323 -123.28818897637795 -214.6544881889764 -122.27149606299213 -216.23811023622048 -121.80661417322838 -214.94173228346457 -120.78992125984253 -216.52157480314963 -120.32503937007876 -215.22519685039373 -119.30834645669293 -216.80503937007876 -118.84346456692916 -215.50866141732286 -117.82677165354332 -217.09228346456695 -117.36188976377953 -215.795905511811 -116.34519685039372 -217.3757480314961 -115.88031496062995 -216.0793700787402 -114.86362204724409 -217.6592125984252 -114.39874015748032 -216.36283464566932 -113.3820472440945 -217.9464566929134 -112.91716535433072 -216.6500787401575 -111.9004724409449 -218.2299212598425 -111.43559055118112 -216.93354330708667 -110.41889763779527 -218.51338582677167 -109.9540157480315 -217.2170078740158 -108.9373228346457 -218.80062992125985 -108.47622047244094 -217.50425196850398 -107.45574803149607 -219.08409448818898 -106.99464566929137 -217.78771653543308 -105.97417322834647 -219.36755905511814 -105.51307086614175 -218.07118110236223 -104.49637795275592 -219.65480314960632 -104.03149606299215 -218.35842519685042 -103.01480314960631 -219.93826771653545 -102.54992125984252 -218.64188976377955 -101.5332283464567 -220.2217322834646 -101.06834645669292 -218.92913385826773 -100.05165354330711 -220.5089763779528 -99.58677165354332 -219.2125984251969 -98.57007874015747 -220.7924409448819 -98.10519685039371 -219.496062992126 -97.08850393700789 -221.07968503937013 -96.62362204724411 -219.7833070866142 -95.60692913385827 -221.36314960629926 -95.1420472440945 -220.0667716535433 -94.12535433070867 -221.64661417322836 -93.6604724409449 -220.35023622047248 -92.64377952755908 -221.9338582677166 -92.17889763779529 -220.63748031496067 -91.16220472440946 -222.2173228346457 -90.69732283464569 -220.92094488188977 -89.68062992125986 -222.50078740157477 -89.21574803149608 -221.20440944881892 -88.19905511811024 -222.788031496063 -87.73417322834646 -221.4916535433071 -86.71748031496064 -223.07149606299217 -86.25259842519687 -221.77511811023624 -85.23590551181103 -223.35496062992124 -84.77480314960631 -222.05858267716536 -83.75433070866143 -223.64220472440948 -83.2932283464567 -222.34582677165355 -82.27275590551183 -223.92566929133864 -81.8116535433071 -222.62929133858273 -80.79496062992126 -224.20913385826776 -80.3300787401575 -222.9127559055118 -79.31338582677166 -224.49637795275595 -78.84850393700788 -223.2 -77.83181102362207 -224.77984251968505 -77.36692913385828 -223.48346456692917 -76.35023622047245 -225.0633070866142 -75.88535433070868 -223.76692913385827 -74.86866141732284 -225.3505511811024 -74.40377952755907 -224.05417322834646 -73.38708661417324 -225.63401574803152 -72.92220472440945 -224.3376377952756 -71.90551181102363 -225.91748031496067 -71.44062992125986 -224.62110236220474 -70.42393700787402 -226.20472440944886 -69.95905511811026 -224.90834645669293 -68.94236220472442 -226.48818897637798 -68.47748031496063 -225.19181102362208 -67.46078740157482 -226.77165354330708 -66.99590551181103 -225.4752755905512 -65.9792125984252 -227.05889763779527 -65.51433070866143 -225.7625196850394 -64.49763779527561 -227.34236220472445 -64.03275590551183 -226.04598425196855 -63.01606299212599 -227.62582677165355 -62.551181102362214 -226.32944881889767 -61.53448818897639 -227.91307086614174 -61.073385826771656 -226.61669291338586 -60.05291338582678 -228.1965354330709 -59.59181102362205 -226.90015748031502 -58.57133858267717 -228.48377952755908 -58.11023622047245 -227.1874015748032 -57.09354330708662 -228.7672440944882 -56.628661417322846 -227.4708661417323 -55.61196850393702 -229.05070866141733 -55.14708661417323 -227.75433070866143 -54.13039370078741 -229.33795275590552 -53.665511811023634 -228.04157480314962 -52.64881889763781 -229.62141732283467 -52.18393700787402 -228.32503937007877 -51.1672440944882 -229.90488188976377 -50.70236220472441 -228.6085039370079 -49.68566929133859 -230.19212598425196 -49.2207874015748 -228.89574803149608 -48.20409448818898 -230.47559055118114 -47.7392125984252 -229.17921259842524 -46.72251968503938 -230.75905511811024 -46.2576377952756 -229.46267716535436 -45.240944881889774 -231.04629921259843 -44.776062992125986 -229.74992125984255 -43.75937007874016 -231.32976377952758 -43.29448818897638 -230.03338582677165 -42.277795275590556 -231.6132283464567 -41.812913385826775 -230.3168503937008 -40.79622047244095 -231.9004724409449 -40.33133858267716 -230.604094488189 -39.314645669291345 -232.18393700787405 -38.84976377952756 -230.88755905511812 -37.83307086614174 -232.46740157480318 -37.37196850393701 -231.17102362204727 -36.35149606299213 -232.7546456692913 -35.89039370078741 -231.45826771653546 -34.86992125984253 -233.03811023622052 -34.4088188976378 -231.7417322834646 -33.38834645669292 -233.3215748031496 -32.927244094488195 -232.02519685039368 -31.910551181102363 -233.60881889763778 -31.44566929133859 -232.31244094488187 -30.42897637795276 -233.892283464567 -29.964094488188984 -232.59590551181105 -28.947401574803155 -234.17574803149608 -28.482519685039374 -232.87937007874015 -27.465826771653546 -234.46299212598424 -27.00094488188977 -233.16661417322834 -25.98425196850394 -234.7464566929134 -25.51937007874016 -233.45007874015755 -24.502677165354335 -235.02992125984255 -24.037795275590554 -233.73354330708662 -23.02110236220473 -235.31716535433074 -22.55622047244095 -234.0207874015748 -21.53952755905512 -235.60062992125987 -21.07464566929134 -234.30425196850396 -20.057952755905518 -235.88409448818902 -19.593070866141737 -234.59149606299215 -18.57637795275591 -236.1713385826772 -18.111496062992128 -234.87496062992128 -17.0948031496063 -236.45480314960633 -16.629921259842522 -235.15842519685043 -15.613228346456697 -236.74204724409452 -15.148346456692915 -235.44566929133862 -14.13165354330709 -237.02551181102362 -13.66677165354331 -235.72913385826774 -12.65007874015748 -237.30897637795277 -12.188976377952757 -236.0125984251969 -11.168503937007875 -237.59622047244096 -10.707401574803152 -236.2998425196851 -9.68692913385827 -237.8796850393701 -9.225826771653542 -236.58330708661416 -8.209133858267718 -238.16314960629924 -7.744251968503937 -236.86677165354337 -6.727559055118111 -238.4503937007875 -6.262677165354331 -237.15401574803155 -5.245984251968504 -238.73385826771656 -4.781102362204725 -237.43748031496065 -3.764409448818898 -239.01732283464565 -3.299527559055119 -237.7209448818898 -2.2828346456692916 -239.3045669291339 -1.8179527559055118 -238.008188976378 -0.8012598425196853 -239.58803149606302 -0.33637795275590554 -238.29165354330712 0.6803149606299213 -239.87149606299212 1.145196850393701 -238.57511811023625 2.161889763779528 -240.15874015748037 2.626771653543307 -238.86236220472443 3.643464566929134 -240.44220472440946 4.108346456692914 -239.1458267716536 5.12503937007874 -240.7256692913386 5.589921259842521 -239.4292913385827 6.606614173228347 -241.01291338582683 7.071496062992127 -239.71653543307087 8.088188976377953 -241.29637795275593 8.553070866141733 -240.00000000000006 9.569763779527559 -241.57984251968506 10.03464566929134 -240.28346456692915 11.051338582677165 -241.86708661417327 11.51244094488189 -240.57070866141734 12.53291338582677 -242.1505511811024 12.994015748031497 -240.85417322834647 14.014488188976378 -242.43401574803156 14.475590551181103 -241.13763779527562 15.492283464566933 -242.72125984251974 15.957165354330712 -241.4248818897638 16.973858267716537 -243.00472440944887 17.438740157480318 -241.70834645669294 18.455433070866142 -243.28818897637797 18.920314960629923 -241.99559055118115 19.93700787401575 -243.57543307086615 20.40188976377953 -242.27905511811028 21.418582677165357 -243.85889763779534 21.883464566929135 -242.56251968503938 22.900157480314967 -244.14614173228347 23.365039370078744 -242.84976377952762 24.381732283464565 -244.42960629921262 24.846614173228346 -243.1332283464567 25.863307086614178 -244.71307086614178 26.32818897637795 -243.41669291338584 27.344881889763787 -245.00031496062994 27.80976377952756 -243.7039370078741 28.82645669291339 -245.2837795275591 29.291338582677167 -243.9874015748032 30.308031496062995 -245.56724409448822 30.77291338582677 -244.2708661417323 31.7896062992126 -245.8544881889764 32.25448818897638 -244.5581102362205 33.271181102362206 -246.13795275590556 33.73606299212599 -244.84157480314965 34.75275590551182 -246.42141732283466 35.21385826771654 -245.12503937007872 36.234330708661425 -246.70866141732284 36.695433070866144 -245.41228346456697 37.71590551181102 -246.99212598425203 38.17700787401576 -245.69574803149612 39.197480314960636 -247.27559055118112 39.65858267716536 -245.9792125984252 40.67527559055119 -247.5628346456693 41.14015748031496 -246.26645669291344 42.15685039370079 -247.84629921259844 42.62173228346457 -246.54992125984253 43.6384251968504 -248.1297637795276 44.10330708661418 -246.8333858267717 45.12000000000001 -248.41700787401578 45.584881889763786 -247.12062992125988 46.60157480314961 -248.70047244094494 47.06645669291339 -247.404094488189 48.083149606299216 -248.98393700787406 48.548031496063004 -247.68755905511816 49.56472440944883 -249.2711811023622 50.0296062992126 -247.97480314960634 51.046299212598434 -249.5546456692914 51.51118110236221 -248.25826771653547 52.52787401574803 -249.83811023622047 52.99275590551182 -248.54173228346457 54.00944881889764 -250.12535433070866 54.47433070866142 -248.82897637795276 55.49102362204725 -250.40881889763787 55.95590551181103 -249.11244094488194 56.972598425196864 -250.69228346456694 57.43748031496064 -249.39968503937007 58.45417322834646 -250.97952755905513 58.91527559055119 -249.68314960629922 59.935748031496075 -251.26299212598428 60.3968503937008 -249.96661417322838 61.417322834645674 -251.5502362204724 61.8784251968504 -250.25385826771654 62.89889763779528 -251.8337007874016 63.36 -250.5373228346457 64.37669291338584 -252.11716535433075 64.84157480314961 -250.82078740157482 65.85826771653544 -252.40440944881888 66.32314960629921 -251.10803149606295 67.33984251968505 -252.68787401574804 67.80472440944882 -251.39149606299216 68.82141732283466 -252.97133858267722 69.28629921259844 -251.67496062992126 70.30299212598426 -253.25858267716535 70.76787401574805 -251.9622047244095 71.78456692913386 -253.54204724409448 72.24944881889765 -252.24566929133863 73.26614173228349 -253.82551181102366 73.73102362204725 -252.52913385826773 74.74771653543309 -254.11275590551182 75.21259842519686 -252.81637795275597 76.22929133858268 -254.39622047244092 76.69417322834647 -253.09984251968504 77.7108661417323 -254.67968503937013 78.17574803149607 -253.3833070866142 79.1924409448819 -254.9669291338583 79.65732283464567 -253.67055118110244 80.67401574803151 -255.25039370078738 81.13889763779528 -253.9540157480315 82.1555905511811 -255.53385826771654 82.6204724409449 -254.23748031496066 83.63716535433073 -255.82110236220478 84.09826771653545 -254.52472440944888 85.11874015748033 -256.10456692913385 85.57984251968506 -254.808188976378 86.60031496062993 -256.38803149606304 87.06141732283466 -255.09165354330707 88.07811023622048 -255.9533858267717 88.6828346456693 -255.09165354330707 88.07811023622048 -255.9533858267717 88.6828346456693 -255.09165354330707 88.07811023622048 -255.9533858267717 88.6828346456693 -0.0 -0.0"
       inkstitch:manual_stitch="true"
       transform="" />
  </g>
  <ellipse
     style="fill:#15a400;stroke:#800000;stroke-width:5.53701;stroke-linecap:square;stroke-linejoin:round;paint-order:stroke fill markers;fill-opacity:1"
     id="path352"
     cx="-37.207031"
     cy="-73.710266"
     rx="68.194733"
     ry="84.617996" />
</g>
</svg>
